<svg xmlns="http://www.w3.org/2000/svg" version="1.1" xmlns:xlink="http://www.w3.org/1999/xlink" xmlns:svgjs="http://svgjs.dev/svgjs" width="1000" height="623" viewBox="0 0 1000 623"><g transform="matrix(1,0,0,1,-0.6060356875466368,0.29762753036436607)"><svg viewBox="0 0 396 247" data-background-color="#ffffff" preserveAspectRatio="xMidYMid meet" height="623" width="1000" xmlns="http://www.w3.org/2000/svg" xmlns:xlink="http://www.w3.org/1999/xlink"><g id="tight-bounds" transform="matrix(1,0,0,1,0.23999019718775116,-0.09999999999999432)"><svg viewBox="0 0 395.52 247.2" height="247.2" width="395.52"><g><svg></svg></g><g><svg viewBox="0 0 395.52 247.2" height="247.2" width="395.52"><g><g><path xmlns="http://www.w3.org/2000/svg" d="M223.823-0.018c22.051 0 43.986 4.326 65.804 12.979l-8.862 24.005c-22.051-7.583-41.311-11.374-57.779-11.374-13.631 0-26.261 2.698-37.891 8.094-11.63 5.35-21.283 12.561-28.96 21.633-5.513 6.482-10.162 13.636-13.947 21.461l-32.06 0c1.983-5.672 4.363-11.152 7.139-16.437 9.723-18.515 23.842-33.193 42.357-44.032 18.515-10.886 39.915-16.329 64.199-16.329zM157.88 191.602c8.327 8.886 18.655 15.957 30.983 21.214 12.282 5.21 25.749 7.816 40.403 7.815 17.492 0 35.728-3.419 54.709-10.258l8.862 21.493c-23.726 10.235-47.358 15.352-70.898 15.352-14.515 0-28.145-2.117-40.892-6.35-12.7-4.187-23.796-10.049-33.286-17.585-9.49-7.583-17.631-16.538-24.423-26.866-5.319-8.033-9.611-16.698-12.875-25.997l32.588 0c4.021 7.796 8.964 14.857 14.829 21.182z" fill="#636365" fill-rule="nonzero" stroke="none" stroke-width="1" stroke-linecap="butt" stroke-linejoin="miter" stroke-miterlimit="10" stroke-dasharray="" stroke-dashoffset="0" font-family="none" font-weight="none" font-size="none" text-anchor="none" style="mix-blend-mode: normal" data-fill-palette-color="tertiary"></path></g></g><g transform="matrix(1,0,0,1,0,91.79636974789915)"><svg viewBox="0 0 395.52 63.607260504201676" height="63.607260504201676" width="395.52"><g><svg viewBox="0 0 395.52 63.607260504201676" height="63.607260504201676" width="395.52"><g><svg viewBox="0 0 395.52 63.607260504201676" height="63.607260504201676" width="395.52"><g><svg viewBox="0 0 395.52 63.607260504201676" height="63.607260504201676" width="395.52"><g><svg viewBox="0 0 395.52 63.607260504201676" height="63.607260504201676" width="395.52"><g><svg viewBox="0 0 395.52 63.607260504201676" height="63.607260504201676" width="395.52"><g transform="matrix(1,0,0,1,0,0)"><svg width="395.52" viewBox="6.710000038146973 -36.88999938964844 232.4099884033203 37.380001068115234" height="63.607260504201676" data-palette-color="#636365"><path d="M24.07-34.94L24.07-34.94Q28.81-34.94 33.5-33.08L33.5-33.08 32.23-29.64Q27.49-31.27 23.95-31.27L23.95-31.27Q21.02-31.27 18.52-30.11 16.02-28.96 14.37-27.01 12.72-25.07 11.79-22.57 10.86-20.07 10.86-17.33L10.86-17.33Q10.86-14.5 11.85-11.95 12.84-9.4 14.62-7.48 16.41-5.57 19.06-4.44 21.7-3.32 24.85-3.32L24.85-3.32Q28.61-3.32 32.69-4.79L32.69-4.79 33.96-1.71Q28.86 0.49 23.8 0.49L23.8 0.49Q20.68 0.49 17.94-0.42 15.21-1.32 13.17-2.94 11.13-4.57 9.67-6.79 8.2-9.01 7.46-11.68 6.71-14.36 6.71-17.31L6.71-17.31Q6.71-22.31 8.8-26.29 10.89-30.27 14.87-32.6 18.85-34.94 24.07-34.94ZM50.34-24.58L50.34-24.58Q55.34-24.58 58.58-21.39 61.81-18.19 61.81-12.55L61.81-12.55Q61.81-6.57 58.51-3.04 55.2 0.49 49.95 0.49L49.95 0.49Q44.94 0.49 41.77-2.82 38.6-6.13 38.6-11.79L38.6-11.79Q38.6-17.63 41.83-21.11 45.07-24.58 50.34-24.58ZM50-21.17L50-21.17Q46.99-21.17 44.75-18.85 42.5-16.53 42.5-12.48L42.5-12.48Q42.5-8.45 44.7-5.69 46.9-2.93 50.39-2.93L50.39-2.93Q53.61-2.93 55.76-5.37 57.91-7.81 57.91-11.74L57.91-11.74Q57.91-13.99 57.21-15.82 56.52-17.65 55.38-18.8 54.25-19.95 52.85-20.56 51.46-21.17 50-21.17ZM79.9-24.58L79.9-24.58Q84.91-24.58 88.14-21.39 91.38-18.19 91.38-12.55L91.38-12.55Q91.38-6.57 88.07-3.04 84.76 0.49 79.51 0.49L79.51 0.49Q74.51 0.49 71.33-2.82 68.16-6.13 68.16-11.79L68.16-11.79Q68.16-17.63 71.39-21.11 74.63-24.58 79.9-24.58ZM79.56-21.17L79.56-21.17Q76.56-21.17 74.31-18.85 72.07-16.53 72.07-12.48L72.07-12.48Q72.07-8.45 74.26-5.69 76.46-2.93 79.95-2.93L79.95-2.93Q83.17-2.93 85.32-5.37 87.47-7.81 87.47-11.74L87.47-11.74Q87.47-13.99 86.77-15.82 86.08-17.65 84.94-18.8 83.81-19.95 82.42-20.56 81.03-21.17 79.56-21.17ZM98.94 0L98.94-36.89 102.95-36.89 102.95 0 98.94 0ZM103.34-13.33L113.98-24.61 118.4-24.61 107.9-13.75 119.04 0 114.23 0 103.34-13.33ZM138.66-31.52L131.97-31.52 131.97-19.87Q132.44-19.9 133.58-19.91 134.73-19.92 135.37-19.93 136-19.95 137.15-20.03 138.3-20.12 138.99-20.23 139.69-20.34 140.68-20.57 141.66-20.8 142.29-21.11 142.91-21.41 143.61-21.89 144.3-22.36 144.69-22.95 145.08-23.54 145.34-24.35 145.6-25.17 145.6-26.15L145.6-26.15Q145.6-26.88 145.45-27.54 145.3-28.2 144.84-28.96 144.37-29.71 143.64-30.25 142.91-30.79 141.63-31.15 140.35-31.52 138.66-31.52L138.66-31.52ZM131.97-16.65L131.97-16.65 131.97-3.66 138.44-3.66Q139.32-3.66 139.92-3.67 140.52-3.69 141.64-3.82 142.76-3.96 143.56-4.19 144.35-4.42 145.33-4.9 146.3-5.37 146.9-6.03 147.5-6.69 147.91-7.73 148.33-8.76 148.33-10.08L148.33-10.08Q148.33-13.33 145.82-15.16 143.3-16.99 139.05-16.99L139.05-16.99Q138.59-16.99 131.97-16.65ZM127.82 0L127.82-34.69 140.05-34.69Q141.84-34.69 143.31-34.31 144.79-33.94 145.75-33.35 146.72-32.76 147.46-31.96 148.21-31.15 148.6-30.4 148.99-29.64 149.23-28.78 149.48-27.93 149.54-27.38 149.6-26.83 149.6-26.34L149.6-26.34Q149.6-24.22 148.16-22.11 146.72-20 145.11-19.38L145.11-19.38Q148.33-18.8 150.39-16.27 152.46-13.75 152.46-10.52L152.46-10.52Q152.46-9.77 152.32-8.94 152.19-8.11 151.8-7.06 151.41-6.01 150.8-5.05 150.19-4.1 149.14-3.16 148.09-2.22 146.73-1.54 145.38-0.85 143.41-0.43 141.45 0 139.1 0L139.1 0 127.82 0ZM170.42-24.58L170.42-24.58Q175.43-24.58 178.66-21.39 181.9-18.19 181.9-12.55L181.9-12.55Q181.9-6.57 178.59-3.04 175.28 0.49 170.03 0.49L170.03 0.49Q165.03 0.49 161.85-2.82 158.68-6.13 158.68-11.79L158.68-11.79Q158.68-17.63 161.91-21.11 165.15-24.58 170.42-24.58ZM170.08-21.17L170.08-21.17Q167.08-21.17 164.83-18.85 162.59-16.53 162.59-12.48L162.59-12.48Q162.59-8.45 164.78-5.69 166.98-2.93 170.47-2.93L170.47-2.93Q173.69-2.93 175.84-5.37 177.99-7.81 177.99-11.74L177.99-11.74Q177.99-13.99 177.29-15.82 176.6-17.65 175.46-18.8 174.33-19.95 172.94-20.56 171.55-21.17 170.08-21.17ZM199.99-24.58L199.99-24.58Q204.99-24.58 208.22-21.39 211.46-18.19 211.46-12.55L211.46-12.55Q211.46-6.57 208.15-3.04 204.84 0.49 199.59 0.49L199.59 0.49Q194.59 0.49 191.42-2.82 188.24-6.13 188.24-11.79L188.24-11.79Q188.24-17.63 191.48-21.11 194.71-24.58 199.99-24.58ZM199.64-21.17L199.64-21.17Q196.64-21.17 194.39-18.85 192.15-16.53 192.15-12.48L192.15-12.48Q192.15-8.45 194.35-5.69 196.54-2.93 200.03-2.93L200.03-2.93Q203.26-2.93 205.4-5.37 207.55-7.81 207.55-11.74L207.55-11.74Q207.55-13.99 206.86-15.82 206.16-17.65 205.03-18.8 203.89-19.95 202.5-20.56 201.11-21.17 199.64-21.17ZM219.03 0L219.03-36.89 223.03-36.89 223.03 0 219.03 0ZM223.42-13.33L234.06-24.61 238.48-24.61 227.99-13.75 239.12 0 234.31 0 223.42-13.33Z" opacity="1" transform="matrix(1,0,0,1,0,0)" fill="#636365" class="undefined-text-0" data-fill-palette-color="primary" id="text-0"></path></svg></g></svg></g></svg></g></svg></g><g></g></svg></g></svg></g></svg></g></svg></g><defs></defs></svg><rect width="395.52" height="247.2" fill="none" stroke="none" visibility="hidden"></rect></g></svg></g></svg>